<?xml version="1.0" standalone="no"?>
<!DOCTYPE svg PUBLIC "-//W3C//DTD SVG 20010904//EN"
 "http://www.w3.org/TR/2001/REC-SVG-20010904/DTD/svg10.dtd">
<svg version="1.0" xmlns="http://www.w3.org/2000/svg"
 width="2083.000000pt" height="2083.000000pt" viewBox="0 0 2083.000000 2083.000000"
 preserveAspectRatio="xMidYMid meet">
<metadata>
Created by potrace 1.14, written by Peter Selinger 2001-2017
</metadata>
<g transform="translate(0.000000,2083.000000) scale(0.100000,-0.100000)"
fill="#000000" stroke="none">
<path d="M10327 16664 c-1 -1 -85 -4 -187 -8 -240 -8 -359 -19 -670 -62 -36
-5 -292 -51 -332 -60 -13 -3 -34 -7 -48 -10 -153 -31 -494 -125 -690 -192
-572 -195 -1142 -488 -1615 -830 -33 -24 -71 -51 -83 -60 -91 -65 -362 -284
-412 -332 -9 -8 -43 -39 -76 -69 -234 -211 -574 -575 -719 -771 -11 -15 -55
-74 -99 -131 -255 -337 -515 -784 -701 -1204 -55 -124 -173 -423 -180 -455 -2
-8 -10 -33 -18 -55 -39 -102 -149 -483 -171 -595 -3 -14 -21 -101 -40 -195
-19 -93 -37 -190 -40 -215 -4 -25 -8 -56 -10 -70 -7 -39 -14 -90 -21 -145 -3
-27 -8 -63 -10 -80 -2 -16 -6 -61 -10 -100 -3 -38 -8 -90 -11 -115 -21 -214
-21 -858 0 -1005 3 -16 7 -57 10 -90 11 -121 19 -189 33 -275 3 -19 6 -48 8
-65 1 -16 5 -41 8 -55 4 -14 9 -41 12 -60 15 -105 60 -316 100 -475 19 -77 37
-149 40 -160 19 -80 116 -374 175 -530 117 -307 300 -690 439 -919 23 -38 41
-70 41 -72 0 -6 139 -223 198 -309 312 -455 682 -869 1097 -1225 398 -343 851
-642 1320 -870 322 -158 586 -262 905 -359 74 -23 149 -46 165 -51 99 -31 449
-110 551 -125 22 -4 46 -8 54 -10 16 -5 185 -30 265 -40 28 -4 61 -8 75 -11
14 -2 55 -6 90 -9 36 -3 81 -7 100 -10 214 -26 797 -26 1095 0 88 8 252 26
279 31 10 2 44 6 75 10 31 3 65 8 76 11 11 2 47 8 80 14 98 16 343 67 450 94
55 14 107 27 115 29 88 21 469 141 525 166 11 5 52 20 90 35 39 14 79 30 90
35 11 4 60 25 109 45 448 187 905 450 1311 755 126 95 298 234 341 275 6 5 40
35 75 65 87 74 440 428 513 515 33 39 65 75 71 80 13 12 142 171 170 209 11
15 28 37 39 49 65 76 386 545 386 564 0 2 8 17 19 31 18 26 27 43 119 207 134
240 287 576 384 840 45 123 136 399 142 430 2 11 16 63 31 115 15 52 29 106
32 120 2 14 16 72 29 130 30 125 30 123 39 180 11 73 14 94 20 120 6 26 9 46
20 115 3 22 7 49 10 60 2 11 7 47 10 80 3 33 8 71 10 85 2 14 7 57 11 95 4 39
8 84 10 100 24 239 24 909 -1 1075 -2 14 -6 61 -10 105 -3 44 -8 91 -10 105
-2 14 -7 45 -10 70 -3 25 -8 56 -10 70 -2 14 -7 43 -10 65 -38 271 -126 651
-213 925 -44 137 -125 367 -147 415 -7 17 -27 64 -43 105 -124 311 -390 808
-578 1078 -24 35 -44 67 -44 72 0 4 -3 10 -8 12 -4 2 -40 49 -80 106 -258 362
-644 782 -987 1073 -22 19 -47 40 -55 48 -8 8 -67 56 -130 106 -374 296 -746
530 -1174 739 -86 42 -159 76 -163 76 -3 0 -29 11 -57 24 -177 83 -540 215
-761 276 -90 25 -191 52 -205 55 -8 2 -63 15 -121 29 -98 24 -218 49 -298 62
-18 3 -43 8 -55 10 -11 2 -39 7 -61 9 -22 3 -51 7 -65 10 -14 3 -45 7 -70 10
-25 3 -56 7 -70 10 -14 2 -52 7 -85 10 -33 3 -78 8 -100 10 -87 10 -155 15
-280 21 -129 6 -413 12 -418 8z"/>
</g>
</svg>
